<?xml version="1.0" encoding="UTF-8"?>
<svg id="Layer_1" data-name="Layer 1" xmlns="http://www.w3.org/2000/svg" viewBox="0 0 180 180">
  <defs>
    <style>
      .cls-1 {
        fill: #c9978e;
      }

      .cls-1, .cls-2 {
        stroke-width: 0px;
      }

      .cls-2 {
        fill: #2e5243;
      }
    </style>
  </defs>
  <rect class="cls-1" width="180" height="180"/>
  <path class="cls-2" d="M31.19,129.6v4.25h7.54v5.5h-7.54v4.69h8.55v5.8h-15.12v-26.02h15.12v5.8h-8.55M54.06,143.67v6.16h-2.85c-4.81,0-7.21-2.62-7.21-7.86v-6.83h-2.31v-6.02h2.31v-5.02h6.6v5.02h3.42v6.02h-3.42v6.94c0,.57.12.97.35,1.22.23.25.63.37,1.19.37h1.91M74.91,140.93h-12.44c.07,1.13.35,1.97.85,2.53.5.55,1.15.83,1.93.83,1.1,0,1.88-.54,2.35-1.62h7.01c-.29,1.43-.85,2.7-1.69,3.82-.84,1.12-1.89,2-3.17,2.64-1.27.64-2.68.96-4.22.96-1.86,0-3.5-.43-4.95-1.29-1.44-.86-2.57-2.09-3.39-3.69-.82-1.6-1.22-3.48-1.22-5.65s.4-4.04,1.21-5.63c.8-1.59,1.93-2.81,3.37-3.67,1.44-.86,3.1-1.29,4.98-1.29s3.5.42,4.93,1.26c1.43.84,2.55,2.04,3.35,3.6.8,1.56,1.21,3.4,1.21,5.52,0,.57-.03,1.13-.1,1.7M68.31,137.43c0-.89-.27-1.58-.8-2.09-.54-.5-1.21-.76-2.01-.76s-1.46.24-1.98.72c-.51.48-.85,1.19-1.01,2.12h5.8M86.92,129.97c1.05-.69,2.18-1.03,3.39-1.03v7.71h-1.84c-1.43,0-2.49.31-3.19.92-.69.62-1.04,1.69-1.04,3.21v9.04h-6.57v-20.71h6.57v3.65c.74-1.18,1.63-2.12,2.68-2.81M110.49,140.93h-12.44c.07,1.13.35,1.97.85,2.53.5.55,1.15.83,1.93.83,1.1,0,1.88-.54,2.35-1.62h7.01c-.29,1.43-.85,2.7-1.69,3.82-.84,1.12-1.89,2-3.17,2.64-1.27.64-2.68.96-4.22.96-1.86,0-3.5-.43-4.95-1.29-1.44-.86-2.57-2.09-3.39-3.69-.82-1.6-1.22-3.48-1.22-5.65s.4-4.04,1.21-5.63c.8-1.59,1.93-2.81,3.37-3.67,1.44-.86,3.1-1.29,4.98-1.29s3.5.42,4.93,1.26c1.43.84,2.55,2.04,3.35,3.6.8,1.56,1.21,3.4,1.21,5.52,0,.57-.03,1.13-.1,1.7M103.88,137.43c0-.89-.27-1.58-.8-2.09-.54-.5-1.21-.76-2.01-.76s-1.46.24-1.98.72c-.51.48-.85,1.19-1.01,2.12h5.8M113.22,133.85c.7-1.6,1.67-2.83,2.88-3.69,1.22-.86,2.58-1.29,4.07-1.29,1.3,0,2.41.28,3.35.85.94.57,1.67,1.33,2.18,2.29v-2.88h6.57v20.71h-6.57v-2.88c-.51.96-1.25,1.72-2.2,2.29-.95.57-2.06.85-3.34.85-1.5,0-2.86-.43-4.07-1.29-1.22-.86-2.18-2.1-2.88-3.71-.7-1.61-1.06-3.49-1.06-5.63s.35-4.01,1.06-5.61M124.72,136.32c-.66-.76-1.47-1.14-2.43-1.14s-1.8.38-2.45,1.13c-.65.75-.97,1.8-.97,3.16s.32,2.38.97,3.16c.65.78,1.46,1.16,2.45,1.16s1.77-.38,2.43-1.14c.66-.76.99-1.82.99-3.17s-.33-2.37-.99-3.14M153.48,131.32c1.26,1.59,1.89,3.73,1.89,6.44v12.07h-6.57v-11.11c0-1.18-.28-2.11-.84-2.79-.56-.68-1.31-1.02-2.25-1.02s-1.75.34-2.31,1.02c-.56.68-.84,1.61-.84,2.79v11.11h-6.57v-27.32h6.57v9.56c.58-.94,1.37-1.69,2.36-2.27.99-.58,2.14-.87,3.44-.87,2.15,0,3.85.79,5.11,2.38"/>
  <path class="cls-2" d="M121.6,73.79c6.62-.05,11.96-5.46,11.96-12.12-.01-6.69-5.39-12.11-12.04-12.13-3.32,0-6.48.69-9.36,1.91,1.26-2.98,1.9-6.18,1.89-9.42,0-6.68-5.39-12.1-12.02-12.1,0,0-.01,0-.02,0-6.62-.01-12,5.37-12.04,12.03-.05-6.66-5.42-12.04-12.04-12.04-6.65.01-12.03,5.43-12.05,12.12,0,3.34.67,6.53,1.89,9.42-2.96-1.26-6.14-1.91-9.36-1.91-6.65,0-12.03,5.43-12.02,12.12h0c-.01,6.66,5.34,12.08,11.96,12.12-6.62.05-11.96,5.46-11.96,12.12,0,6.69,5.39,12.11,12.04,12.12,3.22,0,6.4-.64,9.36-1.91-1.26,2.98-1.9,6.18-1.89,9.42,0,6.68,5.38,12.1,12.02,12.1,0,0,.02,0,.03,0,6.62.01,12-5.37,12.04-12.03.05,6.66,5.42,12.04,12.04,12.04,6.65-.01,12.03-5.43,12.04-12.12,0-3.34-.67-6.52-1.89-9.42,2.96,1.26,6.14,1.91,9.36,1.91,6.65.02,12.06-5.39,12.08-12.08.02-6.69-5.35-12.14-12-12.16M89.97,81.29c-3.32,0-6.49.68-9.36,1.91,1.26-2.98,1.9-6.18,1.89-9.42,0-3.24-.64-6.44-1.89-9.42,2.96,1.26,6.14,1.91,9.36,1.91,3.22,0,6.4-.64,9.36-1.9-1.26,2.98-1.9,6.18-1.89,9.42,0,3.33.67,6.52,1.89,9.42-2.96-1.26-6.14-1.91-9.36-1.91"/>
</svg>