<?xml version="1.0" encoding="UTF-8"?>
<svg id="Layer_1" data-name="Layer 1" xmlns="http://www.w3.org/2000/svg" viewBox="0 0 87.23 87.73">
  <defs>
    <style>
      .cls-1 {
        fill: #fff;
        stroke-width: 0px;
      }
    </style>
  </defs>
  <path class="cls-1" d="M75.21,43.87c6.62-.05,11.96-5.46,11.96-12.12,0-6.69-5.39-12.11-12.04-12.13-3.32,0-6.48.69-9.36,1.91,1.26-2.98,1.9-6.18,1.89-9.42C67.66,5.43,62.27.01,55.64.01h-.02c-6.62-.01-12,5.37-12.04,12.03-.05-6.66-5.42-12.04-12.04-12.04-6.65.01-12.03,5.43-12.05,12.12,0,3.34.67,6.53,1.89,9.42-2.96-1.26-6.14-1.91-9.36-1.91C5.37,19.63,0,25.06,0,31.75H0c-.01,6.66,5.34,12.08,11.96,12.12C5.34,43.92,0,49.33,0,55.99s5.39,12.11,12.04,12.12c3.22,0,6.4-.64,9.36-1.91-1.26,2.98-1.9,6.18-1.89,9.42,0,6.68,5.38,12.1,12.02,12.1h.03c6.62.01,12-5.37,12.04-12.03.05,6.66,5.42,12.04,12.04,12.04,6.65-.01,12.03-5.43,12.04-12.12,0-3.34-.67-6.52-1.89-9.42,2.96,1.26,6.14,1.91,9.36,1.91,6.65.02,12.06-5.39,12.08-12.08s-5.35-12.14-12-12.16M43.58,51.37c-3.32,0-6.49.68-9.36,1.91,1.26-2.98,1.9-6.18,1.89-9.42,0-3.24-.64-6.44-1.89-9.42,2.96,1.26,6.14,1.91,9.36,1.91s6.4-.64,9.36-1.9c-1.26,2.98-1.9,6.18-1.89,9.42,0,3.33.67,6.52,1.89,9.42-2.96-1.26-6.14-1.91-9.36-1.91"/>
</svg>