<?xml version="1.0" encoding="utf-8"?>
<!-- Generator: Adobe Illustrator 28.2.0, SVG Export Plug-In . SVG Version: 6.00 Build 0)  -->
<svg version="1.1" id="Layer_1" xmlns="http://www.w3.org/2000/svg" xmlns:xlink="http://www.w3.org/1999/xlink" x="0px" y="0px"
	 viewBox="0 0 321 183" style="enable-background:new 0 0 321 183;" xml:space="preserve">
<style type="text/css">
	.st0{fill:#2E5243;}
</style>
<path class="st0" d="M124.9,81.5v6.2h10.2v8.1h-10.2v6.9h11.6v8.5H116V73.1h20.5v8.5L124.9,81.5 M155.8,102.2v9H152
	c-6.5,0-9.8-3.8-9.8-11.5v-10h-3.1v-8.8h3.1v-7.4h8.9v7.4h4.6v8.8h-4.6v10.2c0,0.8,0.2,1.4,0.5,1.8c0.3,0.4,0.9,0.5,1.6,0.5H155.8
	 M184.1,98.1h-16.8c0.1,1.7,0.5,2.9,1.2,3.7c0.7,0.8,1.6,1.2,2.6,1.2c1.5,0,2.5-0.8,3.2-2.4h9.5c-0.4,2.1-1.2,4-2.3,5.6
	c-1.1,1.6-2.6,2.9-4.3,3.9c-1.7,0.9-3.6,1.4-5.7,1.4c-2.5,0-4.7-0.6-6.7-1.9c-2-1.3-3.5-3.1-4.6-5.4c-1.1-2.3-1.7-5.1-1.7-8.3
	c0-3.2,0.5-5.9,1.6-8.3c1.1-2.3,2.6-4.1,4.6-5.4c2-1.3,4.2-1.9,6.7-1.9s4.7,0.6,6.7,1.8c1.9,1.2,3.5,3,4.5,5.3
	c1.1,2.3,1.6,5,1.6,8.1C184.2,96.5,184.2,97.3,184.1,98.1 M175.1,93c0-1.3-0.4-2.3-1.1-3.1c-0.7-0.7-1.6-1.1-2.7-1.1
	c-1.1,0-2,0.4-2.7,1.1c-0.7,0.7-1.2,1.7-1.4,3.1L175.1,93 M200.3,82.1c1.4-1,3-1.5,4.6-1.5v11.3h-2.5c-1.9,0-3.4,0.5-4.3,1.3
	c-0.9,0.9-1.4,2.5-1.4,4.7v13.3h-8.9V80.8h8.9v5.4C197.7,84.4,198.9,83.1,200.3,82.1 M232.3,98.1h-16.8c0.1,1.7,0.5,2.9,1.2,3.7
	c0.7,0.8,1.6,1.2,2.6,1.2c1.5,0,2.5-0.8,3.2-2.4h9.5c-0.4,2.1-1.2,4-2.3,5.6c-1.1,1.6-2.6,2.9-4.3,3.9c-1.7,0.9-3.6,1.4-5.7,1.4
	c-2.5,0-4.7-0.6-6.7-1.9c-2-1.3-3.5-3.1-4.6-5.4c-1.1-2.3-1.7-5.1-1.7-8.3c0-3.2,0.5-5.9,1.6-8.3c1.1-2.3,2.6-4.1,4.6-5.4
	c2-1.3,4.2-1.9,6.7-1.9s4.7,0.6,6.7,1.8s3.5,3,4.5,5.3c1.1,2.3,1.6,5,1.6,8.1C232.4,96.5,232.4,97.3,232.3,98.1 M223.3,93
	c0-1.3-0.4-2.3-1.1-3.1c-0.7-0.7-1.6-1.1-2.7-1.1s-2,0.4-2.7,1.1c-0.7,0.7-1.2,1.7-1.4,3.1L223.3,93 M236,87.8
	c0.9-2.3,2.3-4.2,3.9-5.4c1.7-1.3,3.5-1.9,5.5-1.9c1.8,0,3.3,0.4,4.5,1.2c1.3,0.8,2.3,2,3,3.4v-4.2h8.9v30.4h-8.9V107
	c-0.7,1.4-1.7,2.5-3,3.4c-1.3,0.8-2.8,1.2-4.5,1.2c-2,0-3.9-0.6-5.5-1.9c-1.7-1.3-3-3.1-3.9-5.4c-0.9-2.4-1.4-5.1-1.4-8.3
	S235,90.1,236,87.8 M251.5,91.4c-0.9-1.1-2-1.7-3.3-1.7s-2.4,0.6-3.3,1.7c-0.9,1.1-1.3,2.6-1.3,4.6c0,2,0.4,3.5,1.3,4.6
	c0.9,1.1,2,1.7,3.3,1.7c1.3,0,2.4-0.6,3.3-1.7c0.9-1.1,1.3-2.7,1.3-4.6S252.4,92.5,251.5,91.4 M290.5,84.1c1.7,2.3,2.6,5.5,2.6,9.4
	v17.7h-8.9V94.9c0-1.7-0.4-3.1-1.1-4.1s-1.8-1.5-3-1.5s-2.4,0.5-3.1,1.5c-0.8,1-1.1,2.4-1.1,4.1v16.3h-8.9V71.1h8.9v14
	c0.8-1.4,1.9-2.5,3.2-3.3c1.3-0.9,2.9-1.3,4.7-1.3C286.5,80.5,288.8,81.7,290.5,84.1"/>
<path class="st0" d="M97.1,91.5c6.6-0.1,12-5.5,12-12.1c0-6.7-5.4-12.1-12-12.1c-3.3,0-6.5,0.7-9.4,1.9c1.3-3,1.9-6.2,1.9-9.4
	c0-6.7-5.4-12.1-12-12.1c0,0,0,0,0,0c-6.6,0-12,5.4-12,12c-0.1-6.7-5.4-12-12-12c-6.6,0-12,5.4-12.1,12.1c0,3.3,0.7,6.5,1.9,9.4
	c-3-1.3-6.1-1.9-9.4-1.9c-6.7,0-12,5.4-12,12.1l0,0c0,6.7,5.3,12.1,12,12.1c-6.6,0.1-12,5.5-12,12.1c0,6.7,5.4,12.1,12,12.1
	c3.2,0,6.4-0.6,9.4-1.9c-1.3,3-1.9,6.2-1.9,9.4c0,6.7,5.4,12.1,12,12.1c0,0,0,0,0,0c6.6,0,12-5.4,12-12c0.1,6.7,5.4,12,12,12
	c6.6,0,12-5.4,12-12.1c0-3.3-0.7-6.5-1.9-9.4c3,1.3,6.1,1.9,9.4,1.9c6.6,0,12.1-5.4,12.1-12.1S103.8,91.5,97.1,91.5 M65.5,99
	c-3.3,0-6.5,0.7-9.4,1.9c1.3-3,1.9-6.2,1.9-9.4c0-3.2-0.6-6.4-1.9-9.4c3,1.3,6.1,1.9,9.4,1.9c3.2,0,6.4-0.6,9.4-1.9
	c-1.3,3-1.9,6.2-1.9,9.4c0,3.3,0.7,6.5,1.9,9.4C71.9,99.7,68.7,99,65.5,99"/>
</svg>
