<?xml version="1.0" encoding="UTF-8"?>
<svg id="Layer_1" data-name="Layer 1" xmlns="http://www.w3.org/2000/svg" viewBox="0 0 271.16 87.73">
  <defs>
    <style>
      .cls-1 {
        fill: #2e5243;
        stroke-width: 0px;
      }
    </style>
  </defs>
  <path class="cls-1" d="M102.97,33.9v6.23h10.21v8.07h-10.21v6.88h11.58v8.51h-20.48V25.42h20.48v8.51h-11.58M133.94,54.53v9.04h-3.86c-6.51,0-9.77-3.84-9.77-11.53v-10.02h-3.13v-8.83h3.13v-7.36h8.94v7.36h4.63v8.83h-4.63v10.18c0,.84.16,1.42.47,1.79.31.37.85.54,1.61.54h2.59M162.18,50.51h-16.85c.09,1.66.47,2.89,1.15,3.71.68.81,1.56,1.22,2.61,1.22,1.49,0,2.55-.79,3.18-2.38h9.49c-.39,2.1-1.15,3.96-2.29,5.6-1.14,1.64-2.56,2.93-4.29,3.87-1.72.94-3.63,1.41-5.72,1.41-2.52,0-4.74-.63-6.7-1.89-1.95-1.26-3.48-3.07-4.59-5.41-1.11-2.35-1.65-5.1-1.65-8.29s.54-5.93,1.64-8.26c1.08-2.33,2.61-4.12,4.56-5.38s4.2-1.89,6.75-1.89,4.74.62,6.68,1.85,3.45,2.99,4.54,5.28c1.08,2.29,1.64,4.99,1.64,8.1,0,.84-.04,1.66-.14,2.49M153.24,45.38c0-1.31-.37-2.32-1.08-3.07-.73-.73-1.64-1.11-2.72-1.11s-1.98.35-2.68,1.06c-.69.7-1.15,1.75-1.37,3.11h7.86M178.45,34.44c1.42-1.01,2.95-1.51,4.59-1.51v11.31h-2.49c-1.94,0-3.37.45-4.32,1.35-.93.91-1.41,2.48-1.41,4.71v13.26h-8.9v-30.38h8.9v5.35c1-1.73,2.21-3.11,3.63-4.12M210.37,50.51h-16.85c.09,1.66.47,2.89,1.15,3.71.68.81,1.56,1.22,2.61,1.22,1.49,0,2.55-.79,3.18-2.38h9.49c-.39,2.1-1.15,3.96-2.29,5.6-1.14,1.64-2.56,2.93-4.29,3.87-1.72.94-3.63,1.41-5.72,1.41-2.52,0-4.74-.63-6.7-1.89-1.95-1.26-3.48-3.07-4.59-5.41-1.11-2.35-1.65-5.1-1.65-8.29s.54-5.93,1.64-8.26c1.08-2.33,2.61-4.12,4.56-5.38s4.2-1.89,6.75-1.89,4.74.62,6.68,1.85,3.45,2.99,4.54,5.28c1.08,2.29,1.64,4.99,1.64,8.1,0,.84-.04,1.66-.14,2.49M201.42,45.38c0-1.31-.37-2.32-1.08-3.07-.73-.73-1.64-1.11-2.72-1.11s-1.98.35-2.68,1.06c-.69.7-1.15,1.75-1.37,3.11h7.86M214.07,40.13c.95-2.35,2.26-4.15,3.9-5.41,1.65-1.26,3.49-1.89,5.51-1.89,1.76,0,3.26.41,4.54,1.25s2.26,1.95,2.95,3.36v-4.22h8.9v30.38h-8.9v-4.22c-.69,1.41-1.69,2.52-2.98,3.36-1.29.84-2.79,1.25-4.52,1.25-2.03,0-3.87-.63-5.51-1.89-1.65-1.26-2.95-3.08-3.9-5.44-.95-2.36-1.44-5.12-1.44-8.26s.47-5.88,1.44-8.23M229.65,43.75c-.89-1.11-1.99-1.67-3.29-1.67s-2.44.56-3.32,1.66-1.31,2.64-1.31,4.64.43,3.49,1.31,4.64,1.98,1.7,3.32,1.7,2.4-.56,3.29-1.67c.89-1.11,1.34-2.67,1.34-4.65s-.45-3.48-1.34-4.61M268.6,36.42c1.71,2.33,2.56,5.47,2.56,9.45v17.7h-8.9v-16.3c0-1.73-.38-3.1-1.14-4.09s-1.77-1.5-3.05-1.5-2.37.5-3.13,1.5c-.76,1-1.14,2.36-1.14,4.09v16.3h-8.9V23.5h8.9v14.02c.79-1.38,1.86-2.48,3.2-3.33s2.9-1.28,4.66-1.28c2.91,0,5.21,1.16,6.92,3.49"/>
  <path class="cls-1" d="M75.21,43.87c6.62-.05,11.96-5.46,11.96-12.12,0-6.69-5.39-12.11-12.04-12.13-3.32,0-6.48.69-9.36,1.91,1.26-2.98,1.9-6.18,1.89-9.42C67.66,5.43,62.27.01,55.64.01h-.02c-6.62-.01-12,5.37-12.04,12.03-.05-6.66-5.42-12.04-12.04-12.04-6.65.01-12.03,5.43-12.05,12.12,0,3.34.67,6.53,1.89,9.42-2.96-1.26-6.14-1.91-9.36-1.91C5.37,19.63,0,25.06,0,31.75H0c-.01,6.66,5.34,12.08,11.96,12.12C5.34,43.92,0,49.33,0,55.99s5.39,12.11,12.04,12.12c3.22,0,6.4-.64,9.36-1.91-1.26,2.98-1.9,6.18-1.89,9.42,0,6.68,5.38,12.1,12.02,12.1h.03c6.62.01,12-5.37,12.04-12.03.05,6.66,5.42,12.04,12.04,12.04,6.65-.01,12.03-5.43,12.04-12.12,0-3.34-.67-6.52-1.89-9.42,2.96,1.26,6.14,1.91,9.36,1.91,6.65.02,12.06-5.39,12.08-12.08s-5.35-12.14-12-12.16M43.58,51.37c-3.32,0-6.49.68-9.36,1.91,1.26-2.98,1.9-6.18,1.89-9.42,0-3.24-.64-6.44-1.89-9.42,2.96,1.26,6.14,1.91,9.36,1.91s6.4-.64,9.36-1.9c-1.26,2.98-1.9,6.18-1.89,9.42,0,3.33.67,6.52,1.89,9.42-2.96-1.26-6.14-1.91-9.36-1.91"/>
</svg>